<mxfile host="app.diagrams.net" agent="Mozilla/5.0 (Macintosh; Intel Mac OS X 10_15_7) AppleWebKit/605.1.15 (KHTML, like Gecko) Version/17.3.1 Safari/605.1.15" version="24.7.17">
  <diagram name="Page-1" id="2ekwSm2gcjJvsIg5KHbQ">
    <mxGraphModel dx="954" dy="574" grid="1" gridSize="10" guides="1" tooltips="1" connect="1" arrows="1" fold="1" page="1" pageScale="1" pageWidth="850" pageHeight="1100" math="0" shadow="0">
      <root>
        <mxCell id="0" />
        <mxCell id="1" parent="0" />
        <mxCell id="bxQI7wAD2nnIXVo7WAVp-4" style="edgeStyle=orthogonalEdgeStyle;rounded=0;orthogonalLoop=1;jettySize=auto;html=1;exitX=0;exitY=0;exitDx=0;exitDy=0;entryX=1;entryY=0.5;entryDx=0;entryDy=0;endArrow=none;endFill=0;" parent="1" source="bxQI7wAD2nnIXVo7WAVp-1" target="bxQI7wAD2nnIXVo7WAVp-3" edge="1">
          <mxGeometry relative="1" as="geometry" />
        </mxCell>
        <mxCell id="bxQI7wAD2nnIXVo7WAVp-16" style="edgeStyle=orthogonalEdgeStyle;rounded=0;orthogonalLoop=1;jettySize=auto;html=1;exitX=0;exitY=0.5;exitDx=0;exitDy=0;entryX=0.5;entryY=0;entryDx=0;entryDy=0;endArrow=none;endFill=0;" parent="1" source="KDQGvGuNY6lwI-GdizUx-1" target="bxQI7wAD2nnIXVo7WAVp-15" edge="1">
          <mxGeometry relative="1" as="geometry" />
        </mxCell>
        <mxCell id="bxQI7wAD2nnIXVo7WAVp-20" style="edgeStyle=orthogonalEdgeStyle;rounded=0;orthogonalLoop=1;jettySize=auto;html=1;exitX=0.25;exitY=1;exitDx=0;exitDy=0;entryX=0.5;entryY=0;entryDx=0;entryDy=0;endArrow=none;endFill=0;" parent="1" source="bxQI7wAD2nnIXVo7WAVp-1" target="bxQI7wAD2nnIXVo7WAVp-19" edge="1">
          <mxGeometry relative="1" as="geometry" />
        </mxCell>
        <mxCell id="bxQI7wAD2nnIXVo7WAVp-24" style="edgeStyle=orthogonalEdgeStyle;rounded=0;orthogonalLoop=1;jettySize=auto;html=1;exitX=0.75;exitY=1;exitDx=0;exitDy=0;entryX=0.5;entryY=0;entryDx=0;entryDy=0;endArrow=none;endFill=0;" parent="1" source="bxQI7wAD2nnIXVo7WAVp-1" target="bxQI7wAD2nnIXVo7WAVp-23" edge="1">
          <mxGeometry relative="1" as="geometry" />
        </mxCell>
        <mxCell id="bxQI7wAD2nnIXVo7WAVp-30" style="edgeStyle=orthogonalEdgeStyle;rounded=0;orthogonalLoop=1;jettySize=auto;html=1;exitX=1;exitY=0.5;exitDx=0;exitDy=0;entryX=0;entryY=0.5;entryDx=0;entryDy=0;endArrow=none;endFill=0;" parent="1" source="bxQI7wAD2nnIXVo7WAVp-1" target="bxQI7wAD2nnIXVo7WAVp-28" edge="1">
          <mxGeometry relative="1" as="geometry" />
        </mxCell>
        <mxCell id="bxQI7wAD2nnIXVo7WAVp-31" style="edgeStyle=orthogonalEdgeStyle;rounded=0;orthogonalLoop=1;jettySize=auto;html=1;exitX=1;exitY=1;exitDx=0;exitDy=0;entryX=0;entryY=0.5;entryDx=0;entryDy=0;endArrow=none;endFill=0;" parent="1" source="bxQI7wAD2nnIXVo7WAVp-1" target="bxQI7wAD2nnIXVo7WAVp-29" edge="1">
          <mxGeometry relative="1" as="geometry">
            <Array as="points">
              <mxPoint x="470" y="210" />
              <mxPoint x="630" y="210" />
              <mxPoint x="630" y="300" />
            </Array>
          </mxGeometry>
        </mxCell>
        <mxCell id="bxQI7wAD2nnIXVo7WAVp-32" style="edgeStyle=orthogonalEdgeStyle;rounded=0;orthogonalLoop=1;jettySize=auto;html=1;exitX=1;exitY=0;exitDx=0;exitDy=0;entryX=0;entryY=0.5;entryDx=0;entryDy=0;endArrow=none;endFill=0;" parent="1" source="bxQI7wAD2nnIXVo7WAVp-1" target="bxQI7wAD2nnIXVo7WAVp-27" edge="1">
          <mxGeometry relative="1" as="geometry">
            <Array as="points">
              <mxPoint x="610" y="130" />
            </Array>
          </mxGeometry>
        </mxCell>
        <mxCell id="bxQI7wAD2nnIXVo7WAVp-1" value="APPDETAIL" style="rounded=0;whiteSpace=wrap;html=1;" parent="1" vertex="1">
          <mxGeometry x="350" y="130" width="120" height="60" as="geometry" />
        </mxCell>
        <mxCell id="bxQI7wAD2nnIXVo7WAVp-7" style="edgeStyle=orthogonalEdgeStyle;rounded=0;orthogonalLoop=1;jettySize=auto;html=1;exitX=0.5;exitY=1;exitDx=0;exitDy=0;entryX=0.5;entryY=0;entryDx=0;entryDy=0;endArrow=none;endFill=0;" parent="1" source="bxQI7wAD2nnIXVo7WAVp-2" target="bxQI7wAD2nnIXVo7WAVp-6" edge="1">
          <mxGeometry relative="1" as="geometry" />
        </mxCell>
        <mxCell id="bxQI7wAD2nnIXVo7WAVp-2" value="APPTDETAIL" style="rounded=0;whiteSpace=wrap;html=1;" parent="1" vertex="1">
          <mxGeometry x="40" y="30" width="120" height="60" as="geometry" />
        </mxCell>
        <mxCell id="bxQI7wAD2nnIXVo7WAVp-5" style="edgeStyle=orthogonalEdgeStyle;rounded=0;orthogonalLoop=1;jettySize=auto;html=1;exitX=0;exitY=0.5;exitDx=0;exitDy=0;entryX=1;entryY=0.5;entryDx=0;entryDy=0;endArrow=none;endFill=0;" parent="1" source="bxQI7wAD2nnIXVo7WAVp-3" target="bxQI7wAD2nnIXVo7WAVp-2" edge="1">
          <mxGeometry relative="1" as="geometry" />
        </mxCell>
        <mxCell id="bxQI7wAD2nnIXVo7WAVp-3" value="contains" style="rhombus;whiteSpace=wrap;html=1;" parent="1" vertex="1">
          <mxGeometry x="220" y="60" width="80" height="80" as="geometry" />
        </mxCell>
        <mxCell id="bxQI7wAD2nnIXVo7WAVp-9" style="edgeStyle=orthogonalEdgeStyle;rounded=0;orthogonalLoop=1;jettySize=auto;html=1;exitX=0.5;exitY=1;exitDx=0;exitDy=0;entryX=0.5;entryY=0;entryDx=0;entryDy=0;endArrow=none;endFill=0;" parent="1" source="bxQI7wAD2nnIXVo7WAVp-6" target="bxQI7wAD2nnIXVo7WAVp-8" edge="1">
          <mxGeometry relative="1" as="geometry" />
        </mxCell>
        <mxCell id="bxQI7wAD2nnIXVo7WAVp-6" value="contains" style="rhombus;whiteSpace=wrap;html=1;" parent="1" vertex="1">
          <mxGeometry x="60" y="140" width="80" height="80" as="geometry" />
        </mxCell>
        <mxCell id="bxQI7wAD2nnIXVo7WAVp-12" style="edgeStyle=orthogonalEdgeStyle;rounded=0;orthogonalLoop=1;jettySize=auto;html=1;exitX=0.5;exitY=1;exitDx=0;exitDy=0;entryX=0.5;entryY=0;entryDx=0;entryDy=0;endArrow=none;endFill=0;" parent="1" source="bxQI7wAD2nnIXVo7WAVp-8" target="bxQI7wAD2nnIXVo7WAVp-10" edge="1">
          <mxGeometry relative="1" as="geometry" />
        </mxCell>
        <mxCell id="bxQI7wAD2nnIXVo7WAVp-8" value="TREATMENT" style="rounded=0;whiteSpace=wrap;html=1;" parent="1" vertex="1">
          <mxGeometry x="40" y="270" width="120" height="60" as="geometry" />
        </mxCell>
        <mxCell id="bxQI7wAD2nnIXVo7WAVp-14" style="edgeStyle=orthogonalEdgeStyle;rounded=0;orthogonalLoop=1;jettySize=auto;html=1;exitX=0.5;exitY=1;exitDx=0;exitDy=0;endArrow=none;endFill=0;" parent="1" source="bxQI7wAD2nnIXVo7WAVp-10" target="bxQI7wAD2nnIXVo7WAVp-13" edge="1">
          <mxGeometry relative="1" as="geometry" />
        </mxCell>
        <mxCell id="bxQI7wAD2nnIXVo7WAVp-10" value="has" style="rhombus;whiteSpace=wrap;html=1;" parent="1" vertex="1">
          <mxGeometry x="60" y="400" width="80" height="80" as="geometry" />
        </mxCell>
        <mxCell id="bxQI7wAD2nnIXVo7WAVp-13" value="BLOCK" style="rounded=0;whiteSpace=wrap;html=1;" parent="1" vertex="1">
          <mxGeometry x="40" y="530" width="120" height="60" as="geometry" />
        </mxCell>
        <mxCell id="bxQI7wAD2nnIXVo7WAVp-18" style="edgeStyle=orthogonalEdgeStyle;rounded=0;orthogonalLoop=1;jettySize=auto;html=1;exitX=0.5;exitY=1;exitDx=0;exitDy=0;entryX=0.5;entryY=0;entryDx=0;entryDy=0;endArrow=none;endFill=0;" parent="1" source="bxQI7wAD2nnIXVo7WAVp-15" target="bxQI7wAD2nnIXVo7WAVp-17" edge="1">
          <mxGeometry relative="1" as="geometry" />
        </mxCell>
        <mxCell id="bxQI7wAD2nnIXVo7WAVp-15" value="&lt;div&gt;handled&lt;/div&gt;&lt;div&gt;by&lt;/div&gt;" style="rhombus;whiteSpace=wrap;html=1;" parent="1" vertex="1">
          <mxGeometry x="220" y="180" width="80" height="80" as="geometry" />
        </mxCell>
        <mxCell id="bxQI7wAD2nnIXVo7WAVp-17" value="PROVIDER" style="rounded=0;whiteSpace=wrap;html=1;" parent="1" vertex="1">
          <mxGeometry x="200" y="320" width="120" height="60" as="geometry" />
        </mxCell>
        <mxCell id="bxQI7wAD2nnIXVo7WAVp-22" style="edgeStyle=orthogonalEdgeStyle;rounded=0;orthogonalLoop=1;jettySize=auto;html=1;exitX=0.5;exitY=1;exitDx=0;exitDy=0;endArrow=none;endFill=0;" parent="1" source="bxQI7wAD2nnIXVo7WAVp-19" target="bxQI7wAD2nnIXVo7WAVp-21" edge="1">
          <mxGeometry relative="1" as="geometry" />
        </mxCell>
        <mxCell id="bxQI7wAD2nnIXVo7WAVp-19" value="contains" style="rhombus;whiteSpace=wrap;html=1;" parent="1" vertex="1">
          <mxGeometry x="340" y="340" width="80" height="80" as="geometry" />
        </mxCell>
        <mxCell id="bxQI7wAD2nnIXVo7WAVp-21" value="PAYMENT" style="rounded=0;whiteSpace=wrap;html=1;" parent="1" vertex="1">
          <mxGeometry x="320" y="500" width="120" height="60" as="geometry" />
        </mxCell>
        <mxCell id="bxQI7wAD2nnIXVo7WAVp-26" style="edgeStyle=orthogonalEdgeStyle;rounded=0;orthogonalLoop=1;jettySize=auto;html=1;exitX=0.5;exitY=1;exitDx=0;exitDy=0;entryX=0.5;entryY=0;entryDx=0;entryDy=0;endArrow=none;endFill=0;" parent="1" source="bxQI7wAD2nnIXVo7WAVp-23" target="bxQI7wAD2nnIXVo7WAVp-25" edge="1">
          <mxGeometry relative="1" as="geometry" />
        </mxCell>
        <mxCell id="bxQI7wAD2nnIXVo7WAVp-23" value="contains" style="rhombus;whiteSpace=wrap;html=1;" parent="1" vertex="1">
          <mxGeometry x="430" y="290" width="80" height="80" as="geometry" />
        </mxCell>
        <mxCell id="bxQI7wAD2nnIXVo7WAVp-25" value="INSURANCE" style="rounded=0;whiteSpace=wrap;html=1;" parent="1" vertex="1">
          <mxGeometry x="470" y="490" width="120" height="60" as="geometry" />
        </mxCell>
        <mxCell id="bxQI7wAD2nnIXVo7WAVp-76" style="edgeStyle=orthogonalEdgeStyle;rounded=0;orthogonalLoop=1;jettySize=auto;html=1;exitX=1;exitY=0.5;exitDx=0;exitDy=0;entryX=0;entryY=0.5;entryDx=0;entryDy=0;endArrow=none;endFill=0;" parent="1" source="bxQI7wAD2nnIXVo7WAVp-27" target="bxQI7wAD2nnIXVo7WAVp-75" edge="1">
          <mxGeometry relative="1" as="geometry" />
        </mxCell>
        <mxCell id="bxQI7wAD2nnIXVo7WAVp-27" value="books" style="rhombus;whiteSpace=wrap;html=1;" parent="1" vertex="1">
          <mxGeometry x="610" y="30" width="80" height="80" as="geometry" />
        </mxCell>
        <mxCell id="bxQI7wAD2nnIXVo7WAVp-36" style="edgeStyle=orthogonalEdgeStyle;rounded=0;orthogonalLoop=1;jettySize=auto;html=1;exitX=1;exitY=0.5;exitDx=0;exitDy=0;entryX=0;entryY=0.5;entryDx=0;entryDy=0;endArrow=none;endFill=0;" parent="1" source="bxQI7wAD2nnIXVo7WAVp-28" target="bxQI7wAD2nnIXVo7WAVp-35" edge="1">
          <mxGeometry relative="1" as="geometry" />
        </mxCell>
        <mxCell id="bxQI7wAD2nnIXVo7WAVp-28" value="contains" style="rhombus;whiteSpace=wrap;html=1;" parent="1" vertex="1">
          <mxGeometry x="610" y="120" width="80" height="80" as="geometry" />
        </mxCell>
        <mxCell id="bxQI7wAD2nnIXVo7WAVp-34" style="edgeStyle=orthogonalEdgeStyle;rounded=0;orthogonalLoop=1;jettySize=auto;html=1;exitX=1;exitY=0.5;exitDx=0;exitDy=0;entryX=0;entryY=0.5;entryDx=0;entryDy=0;endArrow=none;endFill=0;" parent="1" source="bxQI7wAD2nnIXVo7WAVp-29" target="bxQI7wAD2nnIXVo7WAVp-33" edge="1">
          <mxGeometry relative="1" as="geometry" />
        </mxCell>
        <mxCell id="bxQI7wAD2nnIXVo7WAVp-29" value="applies&lt;div&gt;code to&lt;/div&gt;" style="rhombus;whiteSpace=wrap;html=1;" parent="1" vertex="1">
          <mxGeometry x="590" y="260" width="80" height="80" as="geometry" />
        </mxCell>
        <mxCell id="bxQI7wAD2nnIXVo7WAVp-33" value="APPTSTATUS" style="rounded=0;whiteSpace=wrap;html=1;" parent="1" vertex="1">
          <mxGeometry x="735" y="270" width="120" height="60" as="geometry" />
        </mxCell>
        <mxCell id="bxQI7wAD2nnIXVo7WAVp-35" value="BILLING" style="rounded=0;whiteSpace=wrap;html=1;" parent="1" vertex="1">
          <mxGeometry x="730" y="130" width="120" height="60" as="geometry" />
        </mxCell>
        <mxCell id="bxQI7wAD2nnIXVo7WAVp-39" value="1" style="text;html=1;align=center;verticalAlign=middle;resizable=0;points=[];autosize=1;strokeColor=none;fillColor=none;" parent="1" vertex="1">
          <mxGeometry x="350" y="470" width="30" height="30" as="geometry" />
        </mxCell>
        <mxCell id="bxQI7wAD2nnIXVo7WAVp-40" value="(0,N)" style="text;html=1;align=center;verticalAlign=middle;resizable=0;points=[];autosize=1;strokeColor=none;fillColor=none;" parent="1" vertex="1">
          <mxGeometry x="375" y="470" width="50" height="30" as="geometry" />
        </mxCell>
        <mxCell id="bxQI7wAD2nnIXVo7WAVp-41" value="1" style="text;html=1;align=center;verticalAlign=middle;resizable=0;points=[];autosize=1;strokeColor=none;fillColor=none;" parent="1" vertex="1">
          <mxGeometry x="715" y="38" width="30" height="30" as="geometry" />
        </mxCell>
        <mxCell id="bxQI7wAD2nnIXVo7WAVp-42" value="(1,N)" style="text;html=1;align=center;verticalAlign=middle;resizable=0;points=[];autosize=1;strokeColor=none;fillColor=none;" parent="1" vertex="1">
          <mxGeometry x="705" y="68" width="50" height="30" as="geometry" />
        </mxCell>
        <mxCell id="bxQI7wAD2nnIXVo7WAVp-43" value="1" style="text;html=1;align=center;verticalAlign=middle;resizable=0;points=[];autosize=1;strokeColor=none;fillColor=none;" parent="1" vertex="1">
          <mxGeometry x="705" y="128" width="30" height="30" as="geometry" />
        </mxCell>
        <mxCell id="bxQI7wAD2nnIXVo7WAVp-44" value="1" style="text;html=1;align=center;verticalAlign=middle;resizable=0;points=[];autosize=1;strokeColor=none;fillColor=none;" parent="1" vertex="1">
          <mxGeometry x="705" y="268" width="30" height="30" as="geometry" />
        </mxCell>
        <mxCell id="bxQI7wAD2nnIXVo7WAVp-45" value="(0,N)" style="text;html=1;align=center;verticalAlign=middle;resizable=0;points=[];autosize=1;strokeColor=none;fillColor=none;" parent="1" vertex="1">
          <mxGeometry x="690" y="158" width="50" height="30" as="geometry" />
        </mxCell>
        <mxCell id="bxQI7wAD2nnIXVo7WAVp-46" value="(0,N)" style="text;html=1;align=center;verticalAlign=middle;resizable=0;points=[];autosize=1;strokeColor=none;fillColor=none;" parent="1" vertex="1">
          <mxGeometry x="690" y="300" width="50" height="30" as="geometry" />
        </mxCell>
        <mxCell id="bxQI7wAD2nnIXVo7WAVp-47" value="M" style="text;html=1;align=center;verticalAlign=middle;resizable=0;points=[];autosize=1;strokeColor=none;fillColor=none;" parent="1" vertex="1">
          <mxGeometry x="465" y="108" width="30" height="30" as="geometry" />
        </mxCell>
        <mxCell id="bxQI7wAD2nnIXVo7WAVp-48" value="(1,1)" style="text;html=1;align=center;verticalAlign=middle;resizable=0;points=[];autosize=1;strokeColor=none;fillColor=none;" parent="1" vertex="1">
          <mxGeometry x="460" y="120" width="50" height="30" as="geometry" />
        </mxCell>
        <mxCell id="bxQI7wAD2nnIXVo7WAVp-49" value="M" style="text;html=1;align=center;verticalAlign=middle;resizable=0;points=[];autosize=1;strokeColor=none;fillColor=none;" parent="1" vertex="1">
          <mxGeometry x="465" y="138" width="30" height="30" as="geometry" />
        </mxCell>
        <mxCell id="bxQI7wAD2nnIXVo7WAVp-50" value="(1,1)" style="text;html=1;align=center;verticalAlign=middle;resizable=0;points=[];autosize=1;strokeColor=none;fillColor=none;" parent="1" vertex="1">
          <mxGeometry x="460" y="158" width="50" height="30" as="geometry" />
        </mxCell>
        <mxCell id="bxQI7wAD2nnIXVo7WAVp-51" value="M" style="text;html=1;align=center;verticalAlign=middle;resizable=0;points=[];autosize=1;strokeColor=none;fillColor=none;" parent="1" vertex="1">
          <mxGeometry x="470" y="180" width="30" height="30" as="geometry" />
        </mxCell>
        <mxCell id="bxQI7wAD2nnIXVo7WAVp-52" value="(1,1)" style="text;html=1;align=center;verticalAlign=middle;resizable=0;points=[];autosize=1;strokeColor=none;fillColor=none;" parent="1" vertex="1">
          <mxGeometry x="460" y="205" width="50" height="30" as="geometry" />
        </mxCell>
        <mxCell id="bxQI7wAD2nnIXVo7WAVp-53" value="M" style="text;html=1;align=center;verticalAlign=middle;resizable=0;points=[];autosize=1;strokeColor=none;fillColor=none;" parent="1" vertex="1">
          <mxGeometry x="415" y="188" width="30" height="30" as="geometry" />
        </mxCell>
        <mxCell id="bxQI7wAD2nnIXVo7WAVp-54" value="(1,1)" style="text;html=1;align=center;verticalAlign=middle;resizable=0;points=[];autosize=1;strokeColor=none;fillColor=none;" parent="1" vertex="1">
          <mxGeometry x="430" y="188" width="50" height="30" as="geometry" />
        </mxCell>
        <mxCell id="bxQI7wAD2nnIXVo7WAVp-55" value="1" style="text;html=1;align=center;verticalAlign=middle;resizable=0;points=[];autosize=1;strokeColor=none;fillColor=none;" parent="1" vertex="1">
          <mxGeometry x="510" y="460" width="30" height="30" as="geometry" />
        </mxCell>
        <mxCell id="bxQI7wAD2nnIXVo7WAVp-56" value="(1,N)" style="text;html=1;align=center;verticalAlign=middle;resizable=0;points=[];autosize=1;strokeColor=none;fillColor=none;" parent="1" vertex="1">
          <mxGeometry x="520" y="460" width="50" height="30" as="geometry" />
        </mxCell>
        <mxCell id="bxQI7wAD2nnIXVo7WAVp-57" value="M" style="text;html=1;align=center;verticalAlign=middle;resizable=0;points=[];autosize=1;strokeColor=none;fillColor=none;" parent="1" vertex="1">
          <mxGeometry x="350" y="188" width="30" height="30" as="geometry" />
        </mxCell>
        <mxCell id="bxQI7wAD2nnIXVo7WAVp-58" value="(1,1)" style="text;html=1;align=center;verticalAlign=middle;resizable=0;points=[];autosize=1;strokeColor=none;fillColor=none;" parent="1" vertex="1">
          <mxGeometry x="370" y="188" width="50" height="30" as="geometry" />
        </mxCell>
        <mxCell id="bxQI7wAD2nnIXVo7WAVp-59" value="1" style="text;html=1;align=center;verticalAlign=middle;resizable=0;points=[];autosize=1;strokeColor=none;fillColor=none;" parent="1" vertex="1">
          <mxGeometry x="230" y="290" width="30" height="30" as="geometry" />
        </mxCell>
        <mxCell id="bxQI7wAD2nnIXVo7WAVp-60" value="(0,N)" style="text;html=1;align=center;verticalAlign=middle;resizable=0;points=[];autosize=1;strokeColor=none;fillColor=none;" parent="1" vertex="1">
          <mxGeometry x="250" y="290" width="50" height="30" as="geometry" />
        </mxCell>
        <mxCell id="bxQI7wAD2nnIXVo7WAVp-61" value="M" style="text;html=1;align=center;verticalAlign=middle;resizable=0;points=[];autosize=1;strokeColor=none;fillColor=none;" parent="1" vertex="1">
          <mxGeometry x="315" y="128" width="30" height="30" as="geometry" />
        </mxCell>
        <mxCell id="bxQI7wAD2nnIXVo7WAVp-62" value="(1,1)" style="text;html=1;align=center;verticalAlign=middle;resizable=0;points=[];autosize=1;strokeColor=none;fillColor=none;" parent="1" vertex="1">
          <mxGeometry x="305" y="160" width="50" height="30" as="geometry" />
        </mxCell>
        <mxCell id="bxQI7wAD2nnIXVo7WAVp-63" value="M" style="text;html=1;align=center;verticalAlign=middle;resizable=0;points=[];autosize=1;strokeColor=none;fillColor=none;" parent="1" vertex="1">
          <mxGeometry x="160" y="30" width="30" height="30" as="geometry" />
        </mxCell>
        <mxCell id="bxQI7wAD2nnIXVo7WAVp-64" value="(1,1)" style="text;html=1;align=center;verticalAlign=middle;resizable=0;points=[];autosize=1;strokeColor=none;fillColor=none;" parent="1" vertex="1">
          <mxGeometry x="150" y="60" width="50" height="30" as="geometry" />
        </mxCell>
        <mxCell id="bxQI7wAD2nnIXVo7WAVp-65" value="M" style="text;html=1;align=center;verticalAlign=middle;resizable=0;points=[];autosize=1;strokeColor=none;fillColor=none;" parent="1" vertex="1">
          <mxGeometry x="65" y="88" width="30" height="30" as="geometry" />
        </mxCell>
        <mxCell id="bxQI7wAD2nnIXVo7WAVp-66" value="(1,1)" style="text;html=1;align=center;verticalAlign=middle;resizable=0;points=[];autosize=1;strokeColor=none;fillColor=none;" parent="1" vertex="1">
          <mxGeometry x="95" y="88" width="50" height="30" as="geometry" />
        </mxCell>
        <mxCell id="bxQI7wAD2nnIXVo7WAVp-67" value="1" style="text;html=1;align=center;verticalAlign=middle;resizable=0;points=[];autosize=1;strokeColor=none;fillColor=none;" parent="1" vertex="1">
          <mxGeometry x="65" y="240" width="30" height="30" as="geometry" />
        </mxCell>
        <mxCell id="bxQI7wAD2nnIXVo7WAVp-68" value="(1,N)" style="text;html=1;align=center;verticalAlign=middle;resizable=0;points=[];autosize=1;strokeColor=none;fillColor=none;" parent="1" vertex="1">
          <mxGeometry x="95" y="240" width="50" height="30" as="geometry" />
        </mxCell>
        <mxCell id="bxQI7wAD2nnIXVo7WAVp-69" value="1" style="text;html=1;align=center;verticalAlign=middle;resizable=0;points=[];autosize=1;strokeColor=none;fillColor=none;" parent="1" vertex="1">
          <mxGeometry x="65" y="500" width="30" height="30" as="geometry" />
        </mxCell>
        <mxCell id="bxQI7wAD2nnIXVo7WAVp-70" value="(1,N)" style="text;html=1;align=center;verticalAlign=middle;resizable=0;points=[];autosize=1;strokeColor=none;fillColor=none;" parent="1" vertex="1">
          <mxGeometry x="100" y="500" width="50" height="30" as="geometry" />
        </mxCell>
        <mxCell id="bxQI7wAD2nnIXVo7WAVp-71" value="M" style="text;html=1;align=center;verticalAlign=middle;resizable=0;points=[];autosize=1;strokeColor=none;fillColor=none;" parent="1" vertex="1">
          <mxGeometry x="65" y="328" width="30" height="30" as="geometry" />
        </mxCell>
        <mxCell id="bxQI7wAD2nnIXVo7WAVp-72" value="(1,1)" style="text;html=1;align=center;verticalAlign=middle;resizable=0;points=[];autosize=1;strokeColor=none;fillColor=none;" parent="1" vertex="1">
          <mxGeometry x="95" y="328" width="50" height="30" as="geometry" />
        </mxCell>
        <mxCell id="bxQI7wAD2nnIXVo7WAVp-73" value="1" style="text;html=1;align=center;verticalAlign=middle;resizable=0;points=[];autosize=1;strokeColor=none;fillColor=none;" parent="1" vertex="1">
          <mxGeometry x="345" y="98" width="30" height="30" as="geometry" />
        </mxCell>
        <mxCell id="bxQI7wAD2nnIXVo7WAVp-74" value="(1.N)" style="text;html=1;align=center;verticalAlign=middle;resizable=0;points=[];autosize=1;strokeColor=none;fillColor=none;" parent="1" vertex="1">
          <mxGeometry x="305" y="100" width="50" height="30" as="geometry" />
        </mxCell>
        <mxCell id="bxQI7wAD2nnIXVo7WAVp-75" value="PATIENT" style="rounded=0;whiteSpace=wrap;html=1;" parent="1" vertex="1">
          <mxGeometry x="800" y="40" width="120" height="60" as="geometry" />
        </mxCell>
        <mxCell id="bxQI7wAD2nnIXVo7WAVp-77" value="" style="rounded=0;whiteSpace=wrap;html=1;" parent="1" vertex="1">
          <mxGeometry x="50" y="35" width="100" height="50" as="geometry" />
        </mxCell>
        <mxCell id="bxQI7wAD2nnIXVo7WAVp-78" value="APPOINTMENT" style="rhombus;whiteSpace=wrap;html=1;" parent="1" vertex="1">
          <mxGeometry x="50" y="35" width="100" height="50" as="geometry" />
        </mxCell>
        <mxCell id="KDQGvGuNY6lwI-GdizUx-2" value="" style="edgeStyle=orthogonalEdgeStyle;rounded=0;orthogonalLoop=1;jettySize=auto;html=1;exitX=0;exitY=0.5;exitDx=0;exitDy=0;entryX=0.5;entryY=0;entryDx=0;entryDy=0;endArrow=none;endFill=0;" edge="1" parent="1" source="bxQI7wAD2nnIXVo7WAVp-1" target="KDQGvGuNY6lwI-GdizUx-1">
          <mxGeometry relative="1" as="geometry">
            <mxPoint x="350" y="160" as="sourcePoint" />
            <mxPoint x="260" y="180" as="targetPoint" />
          </mxGeometry>
        </mxCell>
        <mxCell id="KDQGvGuNY6lwI-GdizUx-1" value="" style="ellipse;whiteSpace=wrap;html=1;aspect=fixed;" vertex="1" parent="1">
          <mxGeometry x="340" y="155" width="10" height="10" as="geometry" />
        </mxCell>
        <mxCell id="KDQGvGuNY6lwI-GdizUx-4" value="" style="ellipse;whiteSpace=wrap;html=1;aspect=fixed;" vertex="1" parent="1">
          <mxGeometry x="375" y="190" width="10" height="10" as="geometry" />
        </mxCell>
        <mxCell id="KDQGvGuNY6lwI-GdizUx-5" value="" style="ellipse;whiteSpace=wrap;html=1;aspect=fixed;" vertex="1" parent="1">
          <mxGeometry x="465" y="188" width="10" height="10" as="geometry" />
        </mxCell>
        <mxCell id="KDQGvGuNY6lwI-GdizUx-6" value="" style="ellipse;whiteSpace=wrap;html=1;aspect=fixed;" vertex="1" parent="1">
          <mxGeometry x="470" y="155" width="10" height="10" as="geometry" />
        </mxCell>
      </root>
    </mxGraphModel>
  </diagram>
</mxfile>
